<svg width="27" height="27" viewBox="0 0 27 27" fill="none" xmlns="http://www.w3.org/2000/svg">
<path d="M13.8225 0C13.8792 0.0211213 13.9288 0.0492831 13.9855 0.0704044C14.6944 0.309779 15.148 0.915257 15.148 1.63338C15.148 2.34447 14.7085 2.9429 14.0068 3.18228C13.9501 3.2034 13.8934 3.22452 13.8225 3.24564C13.8225 3.34421 13.8225 3.43573 13.8225 3.5343C13.8225 3.92856 13.8225 4.32283 13.8225 4.70301C14.4533 4.79454 15.07 4.85086 15.6655 4.97759C18.3095 5.55491 20.4219 6.99116 22.0806 9.08921C23.8456 11.314 24.7317 13.8626 24.7529 16.6999C24.76 17.7701 24.7813 18.8473 24.7033 19.9104C24.4907 22.7969 22.9808 24.7753 20.3226 25.9159C18.8411 26.5495 17.2817 26.8241 15.6867 26.9226C14.0422 27.0282 12.3977 27.0353 10.7602 26.8734C8.88888 26.6903 7.08131 26.282 5.46513 25.2752C3.67883 24.1557 2.62265 22.5364 2.38873 20.4736C2.16189 18.4952 2.12645 16.4887 2.48088 14.5174C2.97707 11.7716 4.28844 9.46235 6.36537 7.58255C7.86105 6.23079 9.59064 5.32257 11.5896 4.94239C12.1071 4.84382 12.6387 4.79454 13.1845 4.72413C13.1845 4.24538 13.1845 3.75255 13.1845 3.24564C12.6032 3.09075 12.1779 2.75281 11.9724 2.18254C11.6534 1.33768 12.0858 0.422426 12.9222 0.105607C13.0073 0.0704044 13.0994 0.0352022 13.1845 0C13.3972 0 13.6098 0 13.8225 0ZM21.9104 16.362C21.8892 16.0311 21.875 15.6931 21.8396 15.3622C21.4142 11.3914 18.3308 8.14579 14.2336 7.83601C11.7101 7.64592 9.4914 8.37108 7.68383 10.1453C5.74159 12.0462 4.98312 14.4047 5.12489 17.0871C5.25248 19.4809 7.42865 21.241 9.95215 20.6426C10.4483 20.5229 10.9233 20.2765 11.3769 20.03C12.4898 19.4387 13.6453 19.333 14.8361 19.6991C15.3111 19.847 15.7435 20.1216 16.1971 20.3398C17.9905 21.2269 20.11 20.6918 21.2299 19.0655C21.7899 18.2559 21.9104 17.3265 21.9104 16.362ZM14.7794 22.7617C14.7723 22.0577 14.1911 21.4945 13.4893 21.5015C12.7946 21.5085 12.2346 22.0788 12.2346 22.7688C12.2346 23.4658 12.8159 24.0361 13.5248 24.029C14.2123 24.022 14.7794 23.4447 14.7794 22.7617Z" fill="#BABABA"/>
<path d="M0 16.4529C0.099239 15.5658 0.148858 14.6717 0.304805 13.7916C0.482018 12.8059 1.09872 12.1089 1.98478 11.6372C2.14073 11.5527 2.32503 11.4823 2.43844 11.6443C2.50933 11.7499 2.53768 11.947 2.48806 12.0737C2.0982 13.1157 1.80757 14.1788 1.70833 15.2842C1.65162 15.8685 1.63035 16.4599 1.63035 17.0443C1.63035 18.03 1.65871 19.0086 1.67997 19.9942C1.68706 20.1702 1.67997 20.3322 1.48858 20.4167C1.29719 20.5011 1.1696 20.3885 1.04201 20.2688C0.42531 19.7126 0.134681 18.9945 0.085062 18.1919C0.0496195 17.6146 0.0779735 17.0373 0.0779735 16.4529C0.0496195 16.4529 0.028354 16.4529 0 16.4529Z" fill="#BABABA"/>
<path d="M27 16.2924C26.9788 17.1443 27.0142 17.9821 26.8228 18.8129C26.6881 19.3761 26.4188 19.8549 25.9935 20.2491C25.8659 20.3688 25.7312 20.5026 25.5327 20.4111C25.3271 20.3195 25.3413 20.1435 25.3413 19.9605C25.3626 18.827 25.3909 17.6935 25.3909 16.567C25.3909 15.0674 25.1074 13.6241 24.5758 12.223C24.5474 12.1597 24.5049 12.0893 24.5049 12.0259C24.512 11.8921 24.5049 11.7091 24.5829 11.6528C24.675 11.5824 24.8735 11.5683 24.9869 11.6246C25.9013 12.0752 26.5251 12.7863 26.7165 13.7931C26.8583 14.6168 26.9079 15.4616 27 16.2924Z" fill="#BABABA"/>
<path d="M13.5108 18.0589C12.6389 18.0307 11.9017 17.7209 11.3063 17.0873C10.8243 16.5733 10.8385 15.813 11.3276 15.3272C11.8167 14.8344 12.5964 14.8273 13.121 15.3131C13.4258 15.5947 13.5959 15.5947 13.9078 15.3061C14.4181 14.8414 15.205 14.8484 15.687 15.3202C16.1619 15.7848 16.1903 16.5522 15.7295 17.0662C15.1412 17.728 14.3827 18.0378 13.5108 18.0589Z" fill="#BABABA"/>
<path d="M11.1716 13.299C11.1716 13.5454 11.1787 13.7918 11.1716 14.0382C11.1503 14.7282 10.5974 15.2773 9.91695 15.2844C9.23645 15.2914 8.64811 14.7352 8.62684 14.0453C8.61267 13.5384 8.61267 13.0244 8.62684 12.5175C8.64811 11.8275 9.24354 11.2713 9.92404 11.2854C10.5974 11.2995 11.1503 11.8487 11.1716 12.5386C11.1716 12.785 11.1716 13.0455 11.1716 13.299Z" fill="#BABABA"/>
<path d="M15.8425 13.2791C15.8425 13.0326 15.8354 12.7862 15.8425 12.5398C15.8567 11.8498 16.4025 11.2936 17.0759 11.2796C17.7493 11.2655 18.3447 11.8006 18.3802 12.4835C18.4015 13.0186 18.4015 13.5536 18.3802 14.0887C18.3518 14.7646 17.7493 15.2997 17.0759 15.2856C16.4096 15.2715 15.8638 14.7223 15.8425 14.0465C15.8354 13.786 15.8425 13.5325 15.8425 13.2791Z" fill="#BABABA"/>
</svg>
