<svg width="36" height="30" viewBox="0 0 36 30" fill="none" xmlns="http://www.w3.org/2000/svg">
<path d="M23.9995 21L17.9995 15L11.9995 21" stroke="white" stroke-width="1.52475" stroke-linecap="round" stroke-linejoin="round"/>
<path d="M17.999 15V28.5" stroke="white" stroke-width="1.52475" stroke-linecap="round" stroke-linejoin="round"/>
<path d="M30.5842 24.5857C32.0472 23.7881 33.203 22.526 33.869 20.9986C34.5351 19.4713 34.6735 17.7656 34.2625 16.1507C33.8515 14.5359 32.9144 13.104 31.5992 12.0809C30.284 11.0578 28.6655 10.5018 26.9992 10.5007H25.1092C24.6552 8.74457 23.8089 7.11421 22.6341 5.7322C21.4593 4.35019 19.9865 3.25248 18.3264 2.52162C16.6662 1.79076 14.862 1.44575 13.0494 1.51253C11.2367 1.57932 9.46281 2.05616 7.86097 2.90721C6.25914 3.75825 4.87107 4.96136 3.80114 6.42608C2.73121 7.8908 2.00724 9.57901 1.68368 11.3638C1.36011 13.1486 1.44537 14.9835 1.93303 16.7306C2.42069 18.4777 3.29807 20.0915 4.49921 21.4507" stroke="white" stroke-width="1.52475" stroke-linecap="round" stroke-linejoin="round"/>
<path d="M23.9995 21L17.9995 15L11.9995 21" stroke="white" stroke-width="1.52475" stroke-linecap="round" stroke-linejoin="round"/>
</svg>
