<svg width="27" height="27" viewBox="0 0 27 27" fill="none" xmlns="http://www.w3.org/2000/svg">
<path fill-rule="evenodd" clip-rule="evenodd" d="M21.4553 21.4536C18.0171 24.8921 12.926 25.635 8.75972 23.7083C8.14467 23.4606 7.64042 23.2605 7.16104 23.2605C5.8258 23.2684 4.16381 24.5631 3.30003 23.7004C2.43625 22.8365 3.73192 21.1732 3.73192 19.8299C3.73192 19.3504 3.53972 18.8552 3.29212 18.2389C1.36443 14.0733 2.10837 8.98052 5.54654 5.54311C9.93555 1.15249 17.0663 1.15249 21.4553 5.54198C25.8522 9.93938 25.8443 17.0641 21.4553 21.4536Z" stroke="#BABABA" stroke-width="1.5" stroke-linecap="round" stroke-linejoin="round"/>
<path d="M17.9319 13.9648H17.9421" stroke="#BABABA" stroke-width="2" stroke-linecap="round" stroke-linejoin="round"/>
<path d="M13.4217 13.9648H13.4318" stroke="#BABABA" stroke-width="2" stroke-linecap="round" stroke-linejoin="round"/>
<path d="M8.91144 13.9648H8.92157" stroke="#BABABA" stroke-width="2" stroke-linecap="round" stroke-linejoin="round"/>
</svg>
