<svg width="60" height="60" viewBox="0 0 60 60" fill="none" xmlns="http://www.w3.org/2000/svg">
<rect width="60" height="60" rx="12" fill="url(#paint0_linear_159_1022)"/>
<path d="M30.5 32C32.433 32 34 30.433 34 28.5C34 26.567 32.433 25 30.5 25C28.567 25 27 26.567 27 28.5C27 30.433 28.567 32 30.5 32Z" fill="white"/>
<path d="M30.5533 36.4294C42.581 36.4294 52.3313 32.6809 52.3313 28.057C52.3313 23.433 42.581 19.6846 30.5533 19.6846C18.5257 19.6846 8.77539 23.433 8.77539 28.057C8.77539 32.6809 18.5257 36.4294 30.5533 36.4294Z" stroke="white" stroke-width="2"/>
<path d="M23.3523 32.2432C29.3661 42.731 37.4654 49.3589 41.4425 47.0469C45.4196 44.735 43.7685 34.3587 37.7547 23.8708C31.7409 13.3829 23.6416 6.75508 19.6645 9.06706C15.6874 11.379 17.3385 21.7553 23.3523 32.2432Z" stroke="white" stroke-width="2"/>
<path d="M23.3522 23.8708C17.3384 34.3587 15.6873 44.735 19.6644 47.047C23.6415 49.3589 31.7408 42.7311 37.7546 32.2432C43.7684 21.7554 45.4195 11.379 41.4424 9.06707C37.4653 6.7551 29.366 13.383 23.3522 23.8708Z" stroke="white" stroke-width="2"/>
<defs>
<linearGradient id="paint0_linear_159_1022" x1="3" y1="1.5" x2="43.5" y2="51.5" gradientUnits="userSpaceOnUse">
<stop stop-color="#61DAFB"/>
<stop offset="1" stop-color="#009BC6"/>
</linearGradient>
</defs>
</svg>
