<svg width="18" height="22" viewBox="0 0 18 22" fill="none" xmlns="http://www.w3.org/2000/svg">
<path fill-rule="evenodd" clip-rule="evenodd" d="M8.75 21.5001C8.336 21.5001 8 21.1641 8 20.7501V17.5891C8 17.1751 8.336 16.8391 8.75 16.8391C9.164 16.8391 9.5 17.1751 9.5 17.5891V20.7501C9.5 21.1641 9.164 21.5001 8.75 21.5001Z" fill="black"/>
<path fill-rule="evenodd" clip-rule="evenodd" d="M8.74999 1.5C6.92399 1.5 5.43799 2.994 5.43799 4.831V9.519C5.43799 11.354 6.92399 12.849 8.74999 12.849C10.576 12.849 12.061 11.354 12.061 9.519V4.831C12.061 2.994 10.576 1.5 8.74999 1.5ZM8.74999 14.349C6.09699 14.349 3.93799 12.182 3.93799 9.519V4.831C3.93799 2.167 6.09699 0 8.74999 0C11.403 0 13.561 2.167 13.561 4.831V9.519C13.561 12.182 11.403 14.349 8.74999 14.349Z" fill="black"/>
<path fill-rule="evenodd" clip-rule="evenodd" d="M8.75 18.3388C3.925 18.3388 0 14.3968 0 9.55078C0 9.13678 0.336 8.80078 0.75 8.80078C1.164 8.80078 1.5 9.13678 1.5 9.55078C1.5 13.5688 4.752 16.8388 8.75 16.8388C12.748 16.8388 16 13.5688 16 9.55078C16 9.13678 16.336 8.80078 16.75 8.80078C17.164 8.80078 17.5 9.13678 17.5 9.55078C17.5 14.3968 13.575 18.3388 8.75 18.3388Z" fill="black"/>
<path fill-rule="evenodd" clip-rule="evenodd" d="M12.8086 6.25586H10.8186C10.4046 6.25586 10.0686 5.91986 10.0686 5.50586C10.0686 5.09186 10.4046 4.75586 10.8186 4.75586H12.8086C13.2226 4.75586 13.5586 5.09186 13.5586 5.50586C13.5586 5.91986 13.2226 6.25586 12.8086 6.25586Z" fill="black"/>
<path fill-rule="evenodd" clip-rule="evenodd" d="M12.8106 9.59375H9.82056C9.40656 9.59375 9.07056 9.25775 9.07056 8.84375C9.07056 8.42975 9.40656 8.09375 9.82056 8.09375H12.8106C13.2246 8.09375 13.5606 8.42975 13.5606 8.84375C13.5606 9.25775 13.2246 9.59375 12.8106 9.59375Z" fill="black"/>
</svg>
