<svg width="60" height="60" viewBox="0 0 60 60" fill="none" xmlns="http://www.w3.org/2000/svg">
<rect width="60" height="60" rx="8" fill="#FC583B" fill-opacity="0.1"/>
<path d="M28.7737 16.3761C28.7737 16.2193 28.7301 16.0184 28.6282 15.9057C26.6731 13.72 24.2669 12.3723 21.3513 12.0782C16.0634 11.5441 11.1491 14.8275 9.57245 19.9438C9.30563 20.8014 9.18435 21.6982 9 22.5804V24.4426C9.02426 24.5308 9.05822 24.619 9.06792 24.7121C9.35899 27.4418 10.4748 29.7696 12.3813 31.7201C17.7274 37.1892 23.0783 42.6535 28.4293 48.1226C28.5166 48.2157 28.6185 48.299 28.7786 48.4461V21.1494C28.7786 19.5567 28.7834 17.9639 28.7737 16.3761ZM12.2212 27.3977C11.8962 27.6623 11.3626 27.579 11.1831 27.1968C11.0181 26.8488 10.892 26.4666 10.8338 26.0892C10.7659 25.6482 11.12 25.31 11.6536 25.3198C11.969 25.3345 12.1873 25.5796 12.2794 25.952C12.3959 26.4372 12.7791 26.9419 12.2212 27.3977ZM20.1239 14.9745C17.6061 15.0431 15.5249 16.0527 13.9046 17.9933C12.7161 19.4145 12.0708 21.071 11.9399 22.9332C11.9253 23.1733 11.8331 23.4429 11.6924 23.6291C11.4984 23.8839 11.1879 23.9133 10.892 23.7761C10.6106 23.6487 10.4602 23.3694 10.4699 23.0116C10.5767 18.3364 14.3267 14.161 18.9451 13.5876C19.3283 13.5386 19.7164 13.5141 20.0997 13.5092C20.6091 13.4994 20.9292 13.7837 20.9341 14.2247C20.9438 14.6658 20.6333 14.9598 20.1239 14.9745Z" fill="#FC583B"/>
<path d="M33.9208 12.4509C34.3235 12.4509 34.7116 12.5293 35.0997 12.691C35.0415 12.8282 34.9784 12.9654 34.9202 13.0977C34.7213 13.5437 34.5127 14.0044 34.3575 14.4895C34.275 14.7542 34.241 14.7689 34.1149 14.8179C33.688 14.9747 33.3193 15.2589 33.0767 15.4599C32.8245 15.6706 32.6741 15.9597 32.645 16.2685C32.6159 16.5772 32.7177 16.886 32.9215 17.1261C33.1446 17.3907 33.4503 17.5328 33.7899 17.5328C34.0615 17.5328 34.3235 17.4397 34.5564 17.2633C34.8911 17.0085 35.1385 16.8958 35.3665 16.8958C35.5945 16.8958 35.8516 17.0134 36.1961 17.2731C36.4241 17.4446 36.6812 17.5328 36.948 17.5328C37.2682 17.5328 37.569 17.4005 37.7921 17.1555C38.0153 16.9056 38.1317 16.5821 38.1075 16.2685C38.0832 15.9597 37.9328 15.6755 37.6854 15.4746C37.4089 15.2491 37.1081 15.0629 36.817 14.8865C36.7734 14.8571 36.7249 14.8326 36.6812 14.8032C36.8073 14.2445 37.1227 13.725 37.5835 13.3134C38.1317 12.8233 38.8497 12.5195 39.6017 12.4607C39.6744 12.4558 39.7521 12.4509 39.8297 12.4509C40.4943 12.4509 41.1638 12.6861 41.7168 13.1125C42.2747 13.5437 42.6822 14.1416 42.8617 14.7983C42.9248 15.0384 42.9539 15.2981 42.983 15.5775C42.9878 15.6412 42.9975 15.7049 43.0024 15.7686C43.08 16.4449 43.5312 16.8811 44.157 16.8811C44.1715 16.8811 44.1861 16.8811 44.2007 16.8811C44.5305 16.8713 44.841 16.7291 45.0448 16.489C45.2485 16.2538 45.3407 15.9499 45.3116 15.6216C45.2631 15.1315 45.1758 14.6366 45.0933 14.1612C45.0787 14.0779 45.0642 13.9897 45.0496 13.9064C45.1175 13.8966 45.1952 13.8917 45.2776 13.8917C46.0635 13.8917 47.2958 14.3915 47.9943 15.2246C48.9694 16.3861 49.1101 18.165 48.3582 19.351C47.6984 19.1011 47.0289 18.9736 46.3643 18.9736C45.9034 18.9736 45.4329 19.0374 44.972 19.155C44.7731 19.2089 44.4626 19.2383 44.1182 19.2383C43.7107 19.2383 43.2983 19.1991 43.0363 19.1305C42.7065 19.0472 42.3717 18.9981 42.0418 18.9834C42.0224 18.9834 42.0079 18.9834 41.9885 18.9834C41.3142 18.9834 40.7999 19.4784 40.7902 20.1351C40.7805 20.7869 41.2608 21.2868 41.94 21.326C42.6385 21.3701 43.114 21.6298 43.4002 22.1199C43.5748 22.4237 43.6622 22.8305 43.7204 23.149C43.8465 23.8547 44.2928 24.2909 44.8847 24.2909C44.8944 24.2909 44.9041 24.2909 44.9138 24.2909C45.2534 24.2811 45.5687 24.134 45.7773 23.8841C45.9908 23.6293 46.0829 23.2911 46.0344 22.9383C45.9714 22.4874 45.8646 22.0611 45.7531 21.6053C45.7385 21.5416 45.7239 21.4779 45.7045 21.4142C45.918 21.3603 46.1412 21.3358 46.3692 21.3358C46.9998 21.3358 47.6499 21.5465 48.1932 21.9336C48.7608 22.3355 49.178 22.8942 49.4012 23.5411C49.6923 24.3889 49.6195 25.3004 49.1974 26.1041C48.7754 26.9127 48.072 27.4861 47.2084 27.7311C47.1599 27.7458 47.1066 27.7556 47.0483 27.7703C46.9853 27.785 46.9271 27.7997 46.8591 27.8144C46.1654 28.0056 45.7919 28.5887 45.952 29.2405C46.0878 29.7894 46.5341 30.1423 47.092 30.1423C47.189 30.1423 47.2909 30.1325 47.3879 30.1128C47.6596 30.0589 47.9167 29.9756 48.1302 29.9021C48.2466 29.8629 48.3533 29.8188 48.4601 29.7747C48.9597 30.6078 48.9694 31.7889 48.4552 32.7641C47.9022 33.8079 46.7815 34.5087 45.656 34.5087C45.5639 34.5087 45.4668 34.5038 45.3747 34.494C44.2443 34.3764 43.4147 33.8521 42.852 32.8964C43.5554 32.6465 44.1327 32.2887 44.613 31.8183C44.7877 31.6468 44.9866 31.436 45.1418 31.191C45.4474 30.7156 45.3455 30.0883 44.9041 29.7061C44.6906 29.5199 44.419 29.417 44.1473 29.417C43.8902 29.417 43.6379 29.5052 43.4293 29.6767C43.3274 29.76 43.245 29.8482 43.177 29.9266C43.1528 29.9511 43.1285 29.9756 43.1091 30.005C42.624 30.5196 41.9788 30.8038 41.2948 30.8038C40.7951 30.8038 40.3002 30.647 39.8685 30.3579L39.8297 30.3285C39.6696 30.2207 39.4707 30.0834 39.233 30.0295C39.1408 30.0099 39.0486 29.9952 38.9564 29.9952C38.5198 29.9952 38.1414 30.2501 37.9474 30.6813C37.7048 31.2155 37.8358 31.7497 38.2967 32.1172C38.874 32.573 39.5483 32.8915 40.3002 33.063C40.3148 33.0679 40.3439 33.0875 40.3585 33.1023C41.0667 35.0184 42.3911 36.2093 44.4141 36.7336C44.3996 36.8758 44.385 37.013 44.3607 37.1404C44.0697 38.542 42.7744 39.6348 41.3481 39.6838H41.3142H41.3093C40.8339 38.3901 39.9801 37.3854 38.7769 36.6944C39.1505 36.0427 39.364 35.3909 39.427 34.7048L39.4319 34.6558C39.4464 34.4842 39.4658 34.2931 39.4464 34.0922C39.3834 33.4796 38.8934 33.0385 38.287 33.0385H38.2773C37.6854 33.0434 37.2391 33.4404 37.1421 34.0432C37.1227 34.1559 37.113 34.2637 37.0984 34.3715C37.079 34.5381 37.0596 34.6999 37.0256 34.842C36.8898 35.3713 36.6084 35.8221 36.2058 36.1554C35.8031 36.4886 35.3083 36.6797 34.765 36.7189C34.5564 36.7336 34.3138 36.763 34.0955 36.8709C33.5958 37.1208 33.3629 37.6207 33.4939 38.1793C33.6201 38.7282 34.0324 39.086 34.5418 39.086C34.6 39.086 34.6582 39.0811 34.7213 39.0713C35.4296 38.9585 36.0991 38.7919 36.7152 38.5861C36.8461 38.542 36.9335 38.5224 37.0062 38.5224C37.0548 38.5224 37.1033 38.5322 37.1518 38.5469C37.9959 38.8409 38.6848 39.4878 39.0438 40.3209C39.4028 41.154 39.3979 42.1097 39.0389 42.9379C38.5247 44.1091 37.3749 44.8638 36.1039 44.8638C35.5703 44.8638 35.0318 44.7266 34.5564 44.462C34.5175 44.4424 34.4787 44.4179 34.4351 44.3934C34.3478 44.3395 34.2459 44.2807 34.1343 44.2317C33.9839 44.1679 33.8238 44.1336 33.6589 44.1336C33.2417 44.1336 32.8536 44.364 32.645 44.7364C32.349 45.2755 32.4946 45.9273 32.9894 46.2556C33.3144 46.4713 33.6977 46.7163 34.1246 46.8486C34.1586 46.8584 34.178 46.8682 34.1925 46.8731C34.1925 46.8927 34.1925 46.9319 34.1828 46.9956C34.0664 47.8925 33.3241 48.5638 32.4509 48.5638C32.4315 48.5638 32.4121 48.5638 32.3927 48.5638C31.9415 48.5491 31.5146 48.3678 31.1993 48.0591C30.884 47.7503 30.6948 47.3338 30.6656 46.878C30.6608 46.8045 30.6608 46.7261 30.6608 46.6428V46.584V37.8118C30.6608 30.6225 30.6608 23.1882 30.6608 15.8764C30.6608 15.0433 30.8985 14.2935 31.3545 13.7005C31.8057 13.1125 32.4461 12.7106 33.2029 12.5391C33.4551 12.4803 33.6928 12.4509 33.9208 12.4509ZM33.1737 28.726C33.8384 28.726 34.3283 28.2065 34.338 27.4959C34.3526 26.6481 34.6922 25.8444 35.3034 25.2367C35.8953 24.6486 36.6861 24.3056 37.4817 24.3007C37.8504 24.2958 38.1802 24.1634 38.4131 23.9233C38.6266 23.7028 38.7381 23.4087 38.7284 23.0902C38.7139 22.4237 38.1705 21.9385 37.438 21.9385C37.4234 21.9385 37.4089 21.9385 37.3943 21.9385C34.503 22.0121 32.1356 24.3595 32.0094 27.2803C31.9658 28.3045 32.5479 28.7015 33.1058 28.7309C33.1349 28.726 33.1543 28.726 33.1737 28.726ZM33.9208 12.0098C33.6589 12.0098 33.3921 12.0392 33.1204 12.1029C31.3642 12.495 30.2339 13.9799 30.2339 15.8715C30.2339 26.109 30.2339 36.3416 30.2339 46.5791C30.2339 46.6869 30.2339 46.7947 30.2387 46.9025C30.3067 48.064 31.2235 48.9608 32.383 49C32.4072 49 32.4315 49 32.4558 49C33.5424 49 34.4739 48.162 34.6194 47.0446C34.6582 46.731 34.6194 46.5301 34.2556 46.4174C33.8917 46.3046 33.5521 46.0939 33.232 45.8783C32.9166 45.6675 32.8536 45.2657 33.0282 44.9423C33.1592 44.7021 33.4018 44.5649 33.6589 44.5649C33.7607 44.5649 33.8626 44.5845 33.9597 44.6286C34.0955 44.6874 34.2168 44.7707 34.3429 44.8442C34.9056 45.153 35.5072 45.2951 36.0991 45.2951C37.4914 45.2951 38.8255 44.4914 39.4319 43.1045C40.2954 41.1344 39.3057 38.8262 37.2925 38.1205C37.1906 38.0862 37.0984 38.0715 37.0014 38.0715C36.8656 38.0715 36.7249 38.1058 36.5696 38.1548C35.9438 38.3656 35.2937 38.5175 34.6437 38.6253C34.6049 38.6302 34.5709 38.6351 34.537 38.6351C34.2265 38.6351 33.9936 38.4097 33.916 38.0715C33.8335 37.7187 33.9597 37.4246 34.2895 37.258C34.4399 37.1845 34.6243 37.1649 34.7941 37.1502C36.0796 37.062 37.1227 36.2093 37.4477 34.9449C37.5156 34.6754 37.5253 34.3862 37.569 34.1069C37.6321 33.7148 37.9037 33.4747 38.2773 33.4698H38.2821C38.6605 33.4698 38.9661 33.7344 39.0098 34.1314C39.0292 34.3029 39.005 34.4793 38.9904 34.6558C38.9128 35.4595 38.6072 36.1799 38.1511 36.8562C39.4998 37.5079 40.4215 38.5077 40.9164 39.8946C40.9891 40.0906 41.1055 40.12 41.2414 40.12C41.2802 40.12 41.319 40.12 41.3578 40.1151C42.9878 40.0612 44.4529 38.8311 44.7828 37.2237C44.841 36.9444 44.8507 36.6503 44.8798 36.3808C42.8374 35.9544 41.4597 34.8469 40.7563 32.916C40.7077 32.7886 40.5331 32.6563 40.3973 32.622C39.7181 32.4701 39.1068 32.1907 38.5635 31.7595C38.2627 31.5193 38.1851 31.1959 38.3403 30.8528C38.4616 30.5833 38.6799 30.4265 38.9516 30.4265C39.0098 30.4265 39.068 30.4314 39.1311 30.4461C39.3057 30.4853 39.4658 30.6029 39.6211 30.7107C40.1353 31.0587 40.7174 31.2351 41.2899 31.2351C42.0709 31.2351 42.8374 30.9166 43.4196 30.2991C43.5118 30.2011 43.5991 30.0932 43.701 30.0099C43.8368 29.9021 43.992 29.8482 44.1473 29.8482C44.3122 29.8482 44.4772 29.9119 44.6179 30.0295C44.8847 30.2648 44.9672 30.6421 44.7731 30.9411C44.647 31.142 44.4772 31.3233 44.3074 31.4899C43.7301 32.0584 43.0266 32.4015 42.2213 32.6171C42.8423 33.9991 43.8659 34.7685 45.331 34.9204C45.4377 34.9302 45.5493 34.94 45.656 34.94C46.9416 34.94 48.2126 34.151 48.8385 32.9601C49.4885 31.7252 49.4012 30.1913 48.6153 29.2209C48.4115 29.3042 48.2029 29.3974 47.9895 29.466C47.7615 29.5444 47.5335 29.613 47.2958 29.662C47.223 29.6767 47.1551 29.6865 47.0871 29.6865C46.7282 29.6865 46.4565 29.4758 46.3692 29.1229C46.2673 28.7113 46.505 28.3535 46.9659 28.2261C47.0823 28.1967 47.1987 28.1722 47.3152 28.1379C49.3381 27.5694 50.483 25.3837 49.8039 23.3793C49.2848 21.8503 47.8197 20.8751 46.3595 20.8751C45.9568 20.8751 45.559 20.9486 45.1758 21.1054C45.3261 21.7621 45.5056 22.3649 45.5881 22.9824C45.656 23.4774 45.3213 23.8253 44.8895 23.8351C44.8847 23.8351 44.875 23.8351 44.8701 23.8351C44.4675 23.8351 44.2201 23.5264 44.1327 23.0559C44.06 22.654 43.9581 22.2277 43.7592 21.8846C43.3662 21.2083 42.7162 20.9192 41.9497 20.8702C41.5034 20.8457 41.2026 20.5321 41.2123 20.1253C41.222 19.7136 41.5276 19.4098 41.9739 19.4098C41.9885 19.4098 41.9982 19.4098 42.0127 19.4098C42.3184 19.4196 42.624 19.4686 42.9199 19.5421C43.2255 19.6205 43.6719 19.6597 44.1085 19.6597C44.4723 19.6597 44.8216 19.6303 45.0739 19.5617C45.5056 19.449 45.9326 19.3951 46.3546 19.3951C47.0871 19.3951 47.8003 19.5617 48.4989 19.8705C49.5904 18.5326 49.5031 16.3322 48.3194 14.9208C47.5674 14.0289 46.2236 13.431 45.2679 13.431C44.9866 13.431 44.7343 13.4849 44.5451 13.5976C44.6567 14.3033 44.7974 14.9698 44.8653 15.651C44.9089 16.1019 44.5839 16.4106 44.1764 16.4253C44.1667 16.4253 44.157 16.4253 44.1473 16.4253C43.7398 16.4253 43.473 16.1509 43.4244 15.7049C43.3856 15.357 43.3614 15.0041 43.2692 14.6709C42.8472 13.1125 41.3724 12 39.8151 12C39.7278 12 39.6405 12.0049 39.5531 12.0098C37.7921 12.1519 36.3707 13.4408 36.1864 15.0139C36.6084 15.2883 37.0305 15.5138 37.3992 15.8127C37.7436 16.0921 37.7388 16.5478 37.4574 16.8566C37.3167 17.0134 37.1275 17.0918 36.9335 17.0918C36.7685 17.0918 36.5987 17.033 36.4435 16.9203C36.0311 16.6115 35.6915 16.4547 35.352 16.4547C35.0172 16.4547 34.6825 16.6066 34.2798 16.9105C34.1197 17.033 33.9451 17.0918 33.7753 17.0918C33.5716 17.0918 33.3824 17.0085 33.2417 16.837C32.9845 16.5282 33.004 16.0774 33.3435 15.7931C33.6152 15.5628 33.9257 15.3472 34.2507 15.2246C34.5709 15.107 34.6631 14.9257 34.7601 14.617C34.959 13.9946 35.2549 13.4065 35.5169 12.8037C35.5606 12.7008 35.6333 12.6077 35.7013 12.4901C35.124 12.1715 34.5272 12.0098 33.9208 12.0098ZM33.1737 28.2849C33.1592 28.2849 33.1446 28.2849 33.1349 28.2849C32.6692 28.2604 32.4267 27.9075 32.4509 27.295C32.5673 24.6192 34.7601 22.4433 37.4089 22.3747C37.4186 22.3747 37.4331 22.3747 37.4429 22.3747C37.9425 22.3747 38.287 22.6638 38.2967 23.0951C38.3064 23.5166 37.9862 23.8498 37.4817 23.8547C35.6042 23.8743 33.9354 25.4621 33.9063 27.4861C33.8966 27.9713 33.5861 28.2849 33.1737 28.2849Z" fill="#FC583B"/>
</svg>
